<mxfile host="65bd71144e">
    <diagram id="-9VYPIOkSlmDUQdBUwYq" name="Page-1">
        <mxGraphModel dx="1703" dy="629" grid="1" gridSize="10" guides="1" tooltips="1" connect="1" arrows="1" fold="1" page="1" pageScale="1" pageWidth="850" pageHeight="1100" math="0" shadow="0">
            <root>
                <mxCell id="0"/>
                <mxCell id="1" parent="0"/>
                <mxCell id="68" style="edgeStyle=none;html=1;exitX=0;exitY=0.75;exitDx=0;exitDy=0;entryX=1;entryY=0.75;entryDx=0;entryDy=0;endArrow=block;endFill=1;strokeColor=#5C068C;" edge="1" parent="1" source="65" target="66">
                    <mxGeometry relative="1" as="geometry">
                        <Array as="points">
                            <mxPoint x="280" y="230"/>
                        </Array>
                    </mxGeometry>
                </mxCell>
                <mxCell id="72" style="edgeStyle=none;html=1;exitX=1;exitY=0.5;exitDx=0;exitDy=0;entryX=0;entryY=0.5;entryDx=0;entryDy=0;strokeColor=#5C068C;endArrow=block;endFill=1;" edge="1" parent="1" source="65" target="71">
                    <mxGeometry relative="1" as="geometry"/>
                </mxCell>
                <mxCell id="65" value="Conduciendo" style="rounded=1;whiteSpace=wrap;html=1;fillColor=#e1d5e7;strokeColor=#9673a6;" vertex="1" parent="1">
                    <mxGeometry x="360" y="160" width="160" height="80" as="geometry"/>
                </mxCell>
                <mxCell id="67" style="edgeStyle=none;html=1;exitX=1;exitY=0.25;exitDx=0;exitDy=0;entryX=0;entryY=0.25;entryDx=0;entryDy=0;endArrow=block;endFill=1;strokeColor=#5C068C;" edge="1" parent="1" source="66" target="65">
                    <mxGeometry relative="1" as="geometry">
                        <Array as="points">
                            <mxPoint x="280" y="170"/>
                        </Array>
                    </mxGeometry>
                </mxCell>
                <mxCell id="66" value="Cargando" style="rounded=1;whiteSpace=wrap;html=1;fillColor=#e1d5e7;strokeColor=#9673a6;" vertex="1" parent="1">
                    <mxGeometry x="40" y="160" width="160" height="80" as="geometry"/>
                </mxCell>
                <mxCell id="69" value="" style="endArrow=block;html=1;strokeColor=#5C068C;entryX=0;entryY=0;entryDx=0;entryDy=0;endFill=1;" edge="1" parent="1" target="66">
                    <mxGeometry width="50" height="50" relative="1" as="geometry">
                        <mxPoint y="120" as="sourcePoint"/>
                        <mxPoint x="170" y="200" as="targetPoint"/>
                    </mxGeometry>
                </mxCell>
                <mxCell id="71" value="" style="ellipse;whiteSpace=wrap;html=1;aspect=fixed;fillColor=#e1d5e7;strokeColor=#9673a6;" vertex="1" parent="1">
                    <mxGeometry x="580" y="180" width="40" height="40" as="geometry"/>
                </mxCell>
                <mxCell id="73" value="" style="ellipse;whiteSpace=wrap;html=1;aspect=fixed;fillColor=#e1d5e7;strokeColor=#9673a6;" vertex="1" parent="1">
                    <mxGeometry x="590" y="190" width="20" height="20" as="geometry"/>
                </mxCell>
            </root>
        </mxGraphModel>
    </diagram>
</mxfile>